<svg width="685" height="155" viewBox="0 0 685 155" fill="none" xmlns="http://www.w3.org/2000/svg">
<path d="M23.5906 81.853C10.5619 65.4657 13.2845 41.6194 29.6717 28.5906C46.0589 15.5619 69.9053 18.2845 82.934 34.6717L115.995 76.2554C129.024 92.6426 126.301 116.489 109.914 129.518C93.527 142.546 69.6807 139.824 56.6519 123.437L23.5906 81.853Z" fill="#6CFFC1"/>
<path d="M87.6 37.0916C99.06 19.5713 122.553 14.6586 140.073 26.1186C157.594 37.5786 162.506 61.0716 151.046 78.5919L121.966 123.051C110.506 140.571 87.0127 145.484 69.4925 134.024C51.9723 122.564 47.0595 99.0705 58.5195 81.5502L87.6 37.0916Z" fill="#36B697"/>
<path d="M233.496 58.496L205.848 123.52C205.251 125.141 204.312 126.421 203.032 127.36C201.837 128.213 200.515 128.64 199.064 128.64C196.76 128.64 195.053 128 193.944 126.72C192.835 125.44 192.28 123.861 192.28 121.984C192.28 121.216 192.408 120.405 192.664 119.552L224.536 43.008C225.219 41.3013 226.243 39.9787 227.608 39.04C229.059 38.1013 230.595 37.7173 232.216 37.888C233.752 37.888 235.16 38.3573 236.44 39.296C237.805 40.1493 238.787 41.3867 239.384 43.008L270.872 118.016C271.299 119.125 271.512 120.149 271.512 121.088C271.512 123.392 270.744 125.227 269.208 126.592C267.757 127.957 266.136 128.64 264.344 128.64C262.808 128.64 261.4 128.171 260.12 127.232C258.925 126.293 257.987 125.013 257.304 123.392L229.784 59.264L233.496 58.496ZM209.816 107.904L216.856 93.184H251.416L253.848 107.904H209.816ZM335.854 33.28C338.073 33.28 339.907 34.0053 341.358 35.456C342.809 36.9067 343.534 38.784 343.534 41.088V120.192C343.534 122.411 342.809 124.288 341.358 125.824C339.907 127.275 338.073 128 335.854 128C333.635 128 331.801 127.275 330.35 125.824C328.899 124.288 328.174 122.411 328.174 120.192V113.92L330.99 115.072C330.99 116.181 330.393 117.547 329.198 119.168C328.003 120.704 326.382 122.24 324.334 123.776C322.286 125.312 319.854 126.635 317.038 127.744C314.307 128.768 311.321 129.28 308.078 129.28C302.19 129.28 296.857 127.787 292.078 124.8C287.299 121.728 283.502 117.547 280.686 112.256C277.955 106.88 276.59 100.736 276.59 93.824C276.59 86.8267 277.955 80.6827 280.686 75.392C283.502 70.016 287.257 65.8347 291.95 62.848C296.643 59.776 301.849 58.24 307.566 58.24C311.235 58.24 314.606 58.7947 317.678 59.904C320.75 61.0133 323.395 62.4213 325.614 64.128C327.918 65.8347 329.667 67.584 330.862 69.376C332.142 71.0827 332.782 72.5333 332.782 73.728L328.174 75.392V41.088C328.174 38.8693 328.899 37.0347 330.35 35.584C331.801 34.048 333.635 33.28 335.854 33.28ZM309.998 115.2C313.753 115.2 317.038 114.261 319.854 112.384C322.67 110.507 324.846 107.947 326.382 104.704C328.003 101.461 328.814 97.8347 328.814 93.824C328.814 89.728 328.003 86.0587 326.382 82.816C324.846 79.5733 322.67 77.0133 319.854 75.136C317.038 73.2587 313.753 72.32 309.998 72.32C306.329 72.32 303.086 73.2587 300.27 75.136C297.454 77.0133 295.235 79.5733 293.614 82.816C292.078 86.0587 291.31 89.728 291.31 93.824C291.31 97.8347 292.078 101.461 293.614 104.704C295.235 107.947 297.454 110.507 300.27 112.384C303.086 114.261 306.329 115.2 309.998 115.2ZM373.349 120.192C373.349 122.411 372.624 124.288 371.173 125.824C369.722 127.275 367.888 128 365.669 128C363.45 128 361.616 127.275 360.165 125.824C358.714 124.288 357.989 122.411 357.989 120.192V67.328C357.989 65.1093 358.714 63.2747 360.165 61.824C361.616 60.288 363.45 59.52 365.669 59.52C367.888 59.52 369.722 60.288 371.173 61.824C372.624 63.2747 373.349 65.1093 373.349 67.328V120.192ZM365.541 51.2C362.64 51.2 360.592 50.7307 359.397 49.792C358.202 48.8533 357.605 47.1893 357.605 44.8V42.368C357.605 39.8933 358.245 38.2293 359.525 37.376C360.89 36.4373 362.938 35.968 365.669 35.968C368.656 35.968 370.746 36.4373 371.941 37.376C373.136 38.3147 373.733 39.9787 373.733 42.368V44.8C373.733 47.2747 373.093 48.9813 371.813 49.92C370.533 50.7733 368.442 51.2 365.541 51.2ZM451.855 42.752C454.074 43.8613 455.354 45.6107 455.695 48C456.122 50.3893 455.524 52.5653 453.903 54.528C452.794 56.064 451.343 56.9173 449.551 57.088C447.844 57.2587 446.095 56.9173 444.303 56.064C442.255 55.1253 440.079 54.4 437.775 53.888C435.556 53.376 433.21 53.12 430.735 53.12C426.127 53.12 421.988 53.8453 418.319 55.296C414.735 56.7467 411.663 58.8373 409.103 61.568C406.543 64.2133 404.58 67.3707 403.215 71.04C401.935 74.7093 401.295 78.7627 401.295 83.2C401.295 88.4053 402.02 92.928 403.471 96.768C405.007 100.608 407.098 103.808 409.743 106.368C412.388 108.928 415.503 110.848 419.087 112.128C422.671 113.323 426.554 113.92 430.735 113.92C433.039 113.92 435.343 113.707 437.647 113.28C439.951 112.853 442.17 112.085 444.303 110.976C446.095 110.123 447.844 109.824 449.551 110.08C451.343 110.336 452.836 111.232 454.031 112.768C455.738 114.901 456.335 117.12 455.823 119.424C455.396 121.643 454.116 123.264 451.983 124.288C449.764 125.397 447.46 126.336 445.071 127.104C442.767 127.787 440.42 128.299 438.031 128.64C435.642 129.067 433.21 129.28 430.735 129.28C424.591 129.28 418.746 128.299 413.199 126.336C407.738 124.373 402.831 121.472 398.479 117.632C394.212 113.792 390.842 109.013 388.367 103.296C385.892 97.4933 384.655 90.7947 384.655 83.2C384.655 76.6293 385.764 70.5707 387.983 65.024C390.287 59.4773 393.487 54.6987 397.583 50.688C401.764 46.592 406.671 43.4347 412.303 41.216C417.935 38.912 424.079 37.76 430.735 37.76C434.49 37.76 438.159 38.1867 441.743 39.04C445.327 39.8933 448.698 41.1307 451.855 42.752ZM522.889 58.24C525.108 58.24 526.942 58.9653 528.393 60.416C529.844 61.8667 530.569 63.744 530.569 66.048V120.192C530.569 122.411 529.844 124.288 528.393 125.824C526.942 127.275 525.108 128 522.889 128C520.67 128 518.836 127.275 517.385 125.824C515.934 124.288 515.209 122.411 515.209 120.192V113.92L518.025 115.072C518.025 116.181 517.428 117.547 516.233 119.168C515.038 120.704 513.417 122.24 511.369 123.776C509.321 125.312 506.889 126.635 504.073 127.744C501.342 128.768 498.356 129.28 495.113 129.28C489.225 129.28 483.892 127.787 479.113 124.8C474.334 121.728 470.537 117.547 467.721 112.256C464.99 106.88 463.625 100.736 463.625 93.824C463.625 86.8267 464.99 80.6827 467.721 75.392C470.537 70.016 474.292 65.8347 478.985 62.848C483.678 59.776 488.884 58.24 494.601 58.24C498.27 58.24 501.641 58.7947 504.713 59.904C507.785 61.0133 510.43 62.4213 512.649 64.128C514.953 65.8347 516.702 67.584 517.897 69.376C519.177 71.0827 519.817 72.5333 519.817 73.728L515.209 75.392V66.048C515.209 63.8293 515.934 61.9947 517.385 60.544C518.836 59.008 520.67 58.24 522.889 58.24ZM497.033 115.2C500.788 115.2 504.073 114.261 506.889 112.384C509.705 110.507 511.881 107.947 513.417 104.704C515.038 101.461 515.849 97.8347 515.849 93.824C515.849 89.728 515.038 86.0587 513.417 82.816C511.881 79.5733 509.705 77.0133 506.889 75.136C504.073 73.2587 500.788 72.32 497.033 72.32C493.364 72.32 490.121 73.2587 487.305 75.136C484.489 77.0133 482.27 79.5733 480.649 82.816C479.113 86.0587 478.345 89.728 478.345 93.824C478.345 97.8347 479.113 101.461 480.649 104.704C482.27 107.947 484.489 110.507 487.305 112.384C490.121 114.261 493.364 115.2 497.033 115.2ZM553.6 128C551.381 128 549.547 127.275 548.096 125.824C546.645 124.288 545.92 122.411 545.92 120.192V67.328C545.92 65.1093 546.645 63.2747 548.096 61.824C549.547 60.288 551.381 59.52 553.6 59.52C555.819 59.52 557.653 60.288 559.104 61.824C560.555 63.2747 561.28 65.1093 561.28 67.328V79.36L560.384 70.784C561.323 68.736 562.517 66.944 563.968 65.408C565.504 63.7867 567.211 62.464 569.088 61.44C570.965 60.3307 572.971 59.52 575.104 59.008C577.237 58.496 579.371 58.24 581.504 58.24C584.064 58.24 586.197 58.9653 587.904 60.416C589.696 61.8667 590.592 63.5733 590.592 65.536C590.592 68.352 589.867 70.4 588.416 71.68C586.965 72.8747 585.387 73.472 583.68 73.472C582.059 73.472 580.565 73.1733 579.2 72.576C577.92 71.9787 576.427 71.68 574.72 71.68C573.184 71.68 571.605 72.064 569.984 72.832C568.448 73.5147 566.997 74.624 565.632 76.16C564.352 77.696 563.285 79.616 562.432 81.92C561.664 84.1387 561.28 86.784 561.28 89.856V120.192C561.28 122.411 560.555 124.288 559.104 125.824C557.653 127.275 555.819 128 553.6 128ZM629.521 129.28C622.268 129.28 615.953 127.787 610.577 124.8C605.286 121.728 601.19 117.589 598.289 112.384C595.473 107.179 594.065 101.291 594.065 94.72C594.065 87.04 595.601 80.512 598.673 75.136C601.83 69.6747 605.926 65.4933 610.961 62.592C615.996 59.6907 621.329 58.24 626.961 58.24C631.313 58.24 635.409 59.136 639.249 60.928C643.174 62.72 646.63 65.1947 649.617 68.352C652.604 71.424 654.95 75.008 656.657 79.104C658.449 83.2 659.345 87.552 659.345 92.16C659.26 94.208 658.449 95.872 656.913 97.152C655.377 98.432 653.585 99.072 651.537 99.072H602.641L598.801 86.272H645.777L642.961 88.832V85.376C642.79 82.9013 641.894 80.6827 640.273 78.72C638.737 76.7573 636.774 75.2213 634.385 74.112C632.081 72.9173 629.606 72.32 626.961 72.32C624.401 72.32 622.012 72.6613 619.793 73.344C617.574 74.0267 615.654 75.1787 614.033 76.8C612.412 78.4213 611.132 80.5973 610.193 83.328C609.254 86.0587 608.785 89.5147 608.785 93.696C608.785 98.304 609.724 102.229 611.601 105.472C613.564 108.629 616.038 111.061 619.025 112.768C622.097 114.389 625.34 115.2 628.753 115.2C631.91 115.2 634.428 114.944 636.305 114.432C638.182 113.92 639.676 113.323 640.785 112.64C641.98 111.872 643.046 111.232 643.985 110.72C645.521 109.952 646.972 109.568 648.337 109.568C650.214 109.568 651.75 110.208 652.945 111.488C654.225 112.768 654.865 114.261 654.865 115.968C654.865 118.272 653.67 120.363 651.281 122.24C649.062 124.117 645.948 125.781 641.937 127.232C637.926 128.597 633.788 129.28 629.521 129.28Z" fill="#373737"/>
<path d="M23.5906 81.853C10.5619 65.4657 13.2845 41.6194 29.6717 28.5906C46.0589 15.5619 69.9053 18.2845 82.934 34.6717L115.995 76.2554C129.024 92.6426 126.301 116.489 109.914 129.518C93.527 142.546 69.6807 139.824 56.6519 123.437L23.5906 81.853Z" fill="#6CFFC1"/>
<path d="M87.6 37.0916C99.06 19.5713 122.553 14.6586 140.073 26.1186C157.594 37.5786 162.506 61.0716 151.046 78.5919L121.966 123.051C110.506 140.571 87.0127 145.484 69.4925 134.024C51.9723 122.564 47.0595 99.0705 58.5195 81.5502L87.6 37.0916Z" fill="#36B697"/>
<path d="M23.5906 81.853C10.5619 65.4657 13.2845 41.6194 29.6717 28.5906C46.0589 15.5619 69.9053 18.2845 82.934 34.6717L115.995 76.2554C129.024 92.6426 126.301 116.489 109.914 129.518C93.527 142.546 69.6807 139.824 56.6519 123.437L23.5906 81.853Z" fill="#6CFFC1"/>
<path d="M87.6 37.0916C99.06 19.5713 122.553 14.6586 140.073 26.1186C157.594 37.5786 162.506 61.0716 151.046 78.5919L121.966 123.051C110.506 140.571 87.0127 145.484 69.4925 134.024C51.9723 122.564 47.0595 99.0705 58.5195 81.5502L87.6 37.0916Z" fill="#36B697"/>
<path d="M23.5906 81.853C10.5619 65.4657 13.2845 41.6194 29.6717 28.5906C46.0589 15.5619 69.9053 18.2845 82.934 34.6717L115.995 76.2554C129.024 92.6426 126.301 116.489 109.914 129.518C93.527 142.546 69.6807 139.824 56.6519 123.437L23.5906 81.853Z" fill="#6CFFC1"/>
<path d="M87.6 37.0916C99.06 19.5713 122.553 14.6586 140.073 26.1186C157.594 37.5786 162.506 61.0716 151.046 78.5919L121.966 123.051C110.506 140.571 87.0127 145.484 69.4925 134.024C51.9723 122.564 47.0595 99.0705 58.5195 81.5502L87.6 37.0916Z" fill="#36B697"/>
<path d="M23.5906 81.853C10.5619 65.4657 13.2845 41.6194 29.6717 28.5906C46.0589 15.5619 69.9053 18.2845 82.934 34.6717L115.995 76.2554C129.024 92.6426 126.301 116.489 109.914 129.518C93.527 142.546 69.6807 139.824 56.6519 123.437L23.5906 81.853Z" fill="#6CFFC1"/>
<path d="M87.6 37.0916C99.06 19.5713 122.553 14.6586 140.073 26.1186C157.594 37.5786 162.506 61.0716 151.046 78.5919L121.966 123.051C110.506 140.571 87.0127 145.484 69.4925 134.024C51.9723 122.564 47.0595 99.0705 58.5195 81.5502L87.6 37.0916Z" fill="#36B697"/>
<path d="M23.5906 81.853C10.5619 65.4657 13.2845 41.6194 29.6717 28.5906C46.0589 15.5619 69.9053 18.2845 82.934 34.6717L115.995 76.2554C129.024 92.6426 126.301 116.489 109.914 129.518C93.527 142.546 69.6807 139.824 56.6519 123.437L23.5906 81.853Z" fill="#6CFFC1"/>
<path d="M87.6 37.0916C99.06 19.5713 122.553 14.6586 140.073 26.1186C157.594 37.5786 162.506 61.0716 151.046 78.5919L121.966 123.051C110.506 140.571 87.0127 145.484 69.4925 134.024C51.9723 122.564 47.0595 99.0705 58.5195 81.5502L87.6 37.0916Z" fill="#36B697"/>
<path d="M23.5906 81.853C10.5619 65.4657 13.2845 41.6194 29.6717 28.5906C46.0589 15.5619 69.9053 18.2845 82.934 34.6717L115.995 76.2554C129.024 92.6426 126.301 116.489 109.914 129.518C93.527 142.546 69.6807 139.824 56.6519 123.437L23.5906 81.853Z" fill="#6CFFC1"/>
<path d="M87.6 37.0916C99.06 19.5713 122.553 14.6586 140.073 26.1186C157.594 37.5786 162.506 61.0716 151.046 78.5919L121.966 123.051C110.506 140.571 87.0127 145.484 69.4925 134.024C51.9723 122.564 47.0595 99.0705 58.5195 81.5503L87.6 37.0916Z" fill="#0296EA"/>
<path d="M23.5906 81.853C10.5619 65.4657 13.2845 41.6194 29.6717 28.5906C46.0589 15.5619 69.9053 18.2845 82.934 34.6717L115.995 76.2554C129.024 92.6426 126.301 116.489 109.914 129.518C93.527 142.546 69.6807 139.824 56.6519 123.437L23.5906 81.853Z" fill="#A0A0A0"/>
<path d="M87.6 37.0916C99.06 19.5713 122.553 14.6586 140.073 26.1186C157.594 37.5786 162.506 61.0716 151.046 78.5919L121.966 123.051C110.506 140.571 87.0127 145.484 69.4925 134.024C51.9723 122.564 47.0595 99.0705 58.5195 81.5502L87.6 37.0916Z" fill="#373737"/>
</svg>
