<svg width="172" height="150" viewBox="0 0 172 150" fill="none" xmlns="http://www.w3.org/2000/svg">
<path d="M23.5906 76.853C10.5619 60.4657 13.2845 36.6194 29.6717 23.5906C46.0589 10.5619 69.9053 13.2845 82.934 29.6717L115.995 71.2554C129.024 87.6426 126.301 111.489 109.914 124.518C93.527 137.546 69.6807 134.824 56.6519 118.437L23.5906 76.853Z" fill="#6CFFC1"/>
<path d="M87.6 32.0916C99.06 14.5713 122.553 9.65857 140.073 21.1186C157.594 32.5786 162.506 56.0716 151.046 73.5919L121.966 118.051C110.506 135.571 87.0127 140.484 69.4925 129.024C51.9723 117.564 47.0595 94.0705 58.5195 76.5502L87.6 32.0916Z" fill="#36B697"/>
</svg>
